<svg xmlns="http://www.w3.org/2000/svg" viewBox="0 0 64 64" width="64" height="64" fill="none" color="currentColor">

  <circle cx="32" cy="32" r="6" fill="currentColor"/>
  <path d="M10 34C14 24 20 18 27 16C24 23 23 28 23 34C23 39 20 43 16 46"
        stroke="currentColor" stroke-width="5" stroke-linecap="round" stroke-linejoin="round"/>
  <path d="M54 34C50 24 44 18 37 16C40 23 41 28 41 34C41 39 44 43 48 46"
        stroke="currentColor" stroke-width="5" stroke-linecap="round" stroke-linejoin="round"/>
  <path d="M16 46C21 49 25 49 29 46 M48 46C43 49 39 49 35 46"
        stroke="currentColor" stroke-width="5" stroke-linecap="round"/>
</svg>
